<?xml version="1.0" encoding="UTF-8"?>
<svg width="20px" height="20px" viewBox="0 0 20 20" version="1.1" xmlns="http://www.w3.org/2000/svg" xmlns:xlink="http://www.w3.org/1999/xlink">
    <title>BFCE019F-6B0C-42AC-881B-3E662D8EFD7F</title>
    <g id="-----↳-Demos" stroke="none" stroke-width="1" fill="none" fill-rule="evenodd">
        <g id="Icon-Review---Approved-icons" transform="translate(-397.000000, -3488.000000)" fill="#221F1F" fill-rule="nonzero">
            <g id="Download" transform="translate(108.000000, 3468.000000)">
                <g id="Icons-/-Search" transform="translate(289.000000, 20.000000)">
                    <path d="M2.30013099,2.30013099 C5.31780767,-0.717545693 10.193069,-0.772937357 13.2785302,2.17539679 C16.1113662,4.88233315 16.4833608,9.21145426 14.2983134,12.3413818 L14.0614032,12.6599021 L20,18.6023307 L18.6055271,20.0066935 L12.6585711,14.0614032 L12.6225386,14.0926258 C9.65788107,16.3637862 5.48312127,16.2236174 2.67753026,13.7600651 L2.41859606,13.5223029 L2.17539679,13.2785302 C-0.693252651,10.2764598 -0.718345735,5.58002793 2.06194681,2.54880614 L2.30013099,2.30013099 Z M7.86121186,1.99688544 C4.62243381,1.99688544 1.99688544,4.62243381 1.99688544,7.86121186 C1.99688544,11.0999899 4.62243381,13.7255388 7.86038774,13.7255388 C11.097959,13.7215294 13.7215294,11.097959 13.7255383,7.86121186 C13.7255383,4.62243381 11.0999899,1.99688544 7.86121186,1.99688544 Z" id="Search"></path>
                </g>
            </g>
        </g>
    </g>
</svg>